<?xml version="1.0" encoding="UTF-8"?>
<svg version="1.1" xmlns="http://www.w3.org/2000/svg" width="484" height="148" viewBox="73 123 484 148" preserveAspectRatio="xMidYMid meet">
<path d="M0 0 C4.86461833 2.03429494 9.65875405 4.20968605 14.4375 6.4375 C14.4375 7.0975 14.4375 7.7575 14.4375 8.4375 C15.1284375 8.54449219 15.819375 8.65148437 16.53125 8.76171875 C19.9047155 9.54614016 22.7827589 10.82096017 25.9375 12.25 C35.18346792 16.33696804 44.63256892 18.98626723 54.4375 21.4375 C54.4375 30.3475 54.4375 39.2575 54.4375 48.4375 C53.4475 48.4375 52.4575 48.4375 51.4375 48.4375 C51.52128906 49.06398437 51.60507813 49.69046875 51.69140625 50.3359375 C51.84416016 51.56183594 51.84416016 51.56183594 52 52.8125 C52.15662109 54.03066406 52.15662109 54.03066406 52.31640625 55.2734375 C52.4375 57.4375 52.4375 57.4375 51.4375 59.4375 C52.4275 59.4375 53.4175 59.4375 54.4375 59.4375 C53.36621892 77.67746996 48.84837313 92.86321649 37.4375 107.4375 C36.91671875 108.18515625 36.3959375 108.9328125 35.859375 109.703125 C35.39015625 110.27546875 34.9209375 110.8478125 34.4375 111.4375 C33.7775 111.4375 33.1175 111.4375 32.4375 111.4375 C32.06625 112.30375 32.06625 112.30375 31.6875 113.1875 C30.25450012 115.76689979 28.65325324 117.49871592 26.4375 119.4375 C25.7775 119.4375 25.1175 119.4375 24.4375 119.4375 C23.9425 120.9225 23.9425 120.9225 23.4375 122.4375 C16.63670808 128.3223181 5.80833791 137.11772363 -3.5625 137.4375 C-6.17143401 136.20976635 -8.40829223 134.9836915 -10.8125 133.4375 C-11.80068726 132.82152954 -11.80068726 132.82152954 -12.80883789 132.19311523 C-23.43906262 125.47154036 -23.43906262 125.47154036 -27.5625 121.4375 C-27.5625 120.7775 -27.5625 120.1175 -27.5625 119.4375 C-28.42875 119.06625 -28.42875 119.06625 -29.3125 118.6875 C-31.89189979 117.25450012 -33.62371592 115.65325324 -35.5625 113.4375 C-35.5625 112.7775 -35.5625 112.1175 -35.5625 111.4375 C-37.0475 110.9425 -37.0475 110.9425 -38.5625 110.4375 C-43.51405247 104.6522159 -50.5625 96.38248952 -50.5625 88.4375 C-51.2225 88.4375 -51.8825 88.4375 -52.5625 88.4375 C-57.39053884 73.61255471 -58.33648107 59.77079311 -58.375 44.25 C-58.3982088 42.02406472 -58.42358702 39.79815097 -58.45117188 37.57226562 C-58.51320489 32.19400074 -58.54879256 26.8160943 -58.5625 21.4375 C-57.66964043 21.18744705 -57.66964043 21.18744705 -56.75874329 20.93234253 C-54.02183566 20.16385998 -51.28631172 19.39055728 -48.55078125 18.6171875 C-47.61463989 18.35510498 -46.67849854 18.09302246 -45.71398926 17.82299805 C-31.12998195 13.68889857 -17.51711475 7.49234659 -4.265625 0.16796875 C-2.5625 -0.5625 -2.5625 -0.5625 0 0 Z M-7.625 18.16015625 C-8.41293945 18.53084229 -9.20087891 18.90152832 -10.01269531 19.28344727 C-10.85413086 19.68490967 -11.69556641 20.08637207 -12.5625 20.5 C-22.67179247 25.20349908 -32.98500578 28.93792478 -43.5625 32.4375 C-43.63755102 37.20227752 -43.69151989 41.96669901 -43.72729492 46.73193359 C-43.74223355 48.34755458 -43.76259201 49.9631361 -43.78881836 51.57861328 C-43.99474087 64.60422138 -43.04104747 75.82079419 -36.5625 87.4375 C-33.3172798 86.72314454 -33.3172798 86.72314454 -31.94140625 83.6484375 C-31.32689819 82.37411124 -30.72223287 81.09501334 -30.125 79.8125 C-29.42278768 78.35700231 -28.71821183 76.90264339 -28.01171875 75.44921875 C-27.6254834 74.65177246 -27.23924805 73.85432617 -26.84130859 73.03271484 C-24.45427714 68.18847194 -21.94118849 63.40968846 -19.4375 58.625 C-18.94709229 57.68382324 -18.45668457 56.74264648 -17.95141602 55.77294922 C-14.98325149 50.0928646 -11.94765082 44.45523511 -8.84545898 38.84716797 C-7.21028884 35.77597304 -5.86594515 32.66181169 -4.5625 29.4375 C-4.2325 28.7775 -3.9025 28.1175 -3.5625 27.4375 C-4.0575 26.4475 -4.0575 26.4475 -4.5625 25.4375 C-3.2425 25.4375 -1.9225 25.4375 -0.5625 25.4375 C4.23191473 34.90875525 8.90205354 44.42579261 13.37866211 54.05200195 C15.22187807 57.98923143 17.16812846 61.72453902 19.4375 65.4375 C20.57979049 67.67877139 21.70358533 69.92952895 22.8125 72.1875 C25.5341447 77.69460628 28.37892931 83.10966718 31.4375 88.4375 C39.08312985 80.51881194 40.10340085 69.94491831 40.4375 59.4375 C41.4275 59.1075 42.4175 58.7775 43.4375 58.4375 C43.251875 57.53 43.06625 56.6225 42.875 55.6875 C42.48015379 52.75435676 42.49058428 51.1730343 43.4375 48.4375 C42.4475 48.4375 41.4575 48.4375 40.4375 48.4375 C40.44910156 47.53386719 40.46070313 46.63023437 40.47265625 45.69921875 C40.48167969 44.51972656 40.49070312 43.34023437 40.5 42.125 C40.51160156 40.95324219 40.52320313 39.78148437 40.53515625 38.57421875 C40.58649898 35.40690805 40.58649898 35.40690805 39.4375 32.4375 C37.422494 31.29083663 37.422494 31.29083663 34.9375 30.4375 C34.02226562 30.09332031 33.10703125 29.74914062 32.1640625 29.39453125 C29.88977718 28.59625059 27.61121577 27.84834106 25.3125 27.125 C17.45986974 24.5873457 9.44984621 21.16751694 2.20703125 17.22265625 C-1.45082758 15.59963279 -4.2583281 16.53699563 -7.625 18.16015625 Z M45.4375 46.4375 C44.7775 47.0975 44.1175 47.7575 43.4375 48.4375 C45.0875 48.4375 46.7375 48.4375 48.4375 48.4375 C48.4375 47.7775 48.4375 47.1175 48.4375 46.4375 C47.4475 46.4375 46.4575 46.4375 45.4375 46.4375 Z M-2.5625 56.4375 C-3.32441406 57.96132813 -4.08631359 59.48516352 -4.84814453 61.0090332 C-5.4946944 62.30196926 -6.14150724 63.59477384 -6.78857422 64.88745117 C-8.11240646 67.53278144 -9.43489157 70.17848024 -10.7421875 72.83203125 C-12.87861771 77.16668924 -15.18949988 81.37092751 -17.609375 85.5546875 C-18.71305018 87.38317911 -18.71305018 87.38317911 -18.5625 89.4375 C-17.5725 89.7675 -16.5825 90.0975 -15.5625 90.4375 C-15.10875 89.344375 -14.655 88.25125 -14.1875 87.125 C-13.14607909 84.61612235 -12.09771956 82.74032933 -10.5625 80.4375 C-8.59130859 80.00512695 -8.59130859 80.00512695 -6.2109375 79.92578125 C-5.36015625 79.89033203 -4.509375 79.85488281 -3.6328125 79.81835938 C-2.29863281 79.78452148 -2.29863281 79.78452148 -0.9375 79.75 C-0.0403125 79.71583984 0.856875 79.68167969 1.78125 79.64648438 C3.99987538 79.56387598 6.2180994 79.49477281 8.4375 79.4375 C8.7675 78.7775 9.0975 78.1175 9.4375 77.4375 C8.31118565 74.15282996 6.69334205 71.06360978 5.1875 67.9375 C4.77886719 67.05707031 4.37023437 66.17664063 3.94921875 65.26953125 C3.54832031 64.42777344 3.14742187 63.58601563 2.734375 62.71875 C2.36666992 61.94595703 1.99896484 61.17316406 1.62011719 60.37695312 C0.43966032 58.13444252 0.43966032 58.13444252 -2.5625 56.4375 Z M45.4375 59.4375 C45.4375 60.0975 45.4375 60.7575 45.4375 61.4375 C46.0975 61.4375 46.7575 61.4375 47.4375 61.4375 C47.4375 60.7775 47.4375 60.1175 47.4375 59.4375 C46.7775 59.4375 46.1175 59.4375 45.4375 59.4375 Z M-19.5625 90.4375 C-21.5425 94.7275 -23.5225 99.0175 -25.5625 103.4375 C-20.0934823 109.27111888 -14.17685917 113.94988168 -7.5625 118.4375 C-6.72976562 119.05109375 -5.89703125 119.6646875 -5.0390625 120.296875 C-2.61256513 121.72555808 -2.61256513 121.72555808 -0.05078125 120.82421875 C4.36812534 118.3615628 8.3888235 115.46328849 12.4375 112.4375 C13.63826172 111.54417969 13.63826172 111.54417969 14.86328125 110.6328125 C19.15511734 107.26837014 19.15511734 107.26837014 21.1875 102.375 C20.22547472 98.60706767 18.9660001 96.40775052 16.4375 93.4375 C13.60694255 92.8840058 11.63965294 92.72739267 8.828125 92.8515625 C8.10131531 92.86005219 7.37450562 92.86854187 6.62567139 92.87728882 C4.31141879 92.91079399 2.00069295 92.98605068 -0.3125 93.0625 C-1.88406413 93.09260411 -3.45568308 93.11997917 -5.02734375 93.14453125 C-8.87374813 93.2105735 -12.71752691 93.31406079 -16.5625 93.4375 C-16.5625 92.4475 -16.5625 91.4575 -16.5625 90.4375 C-17.5525 90.4375 -18.5425 90.4375 -19.5625 90.4375 Z " fill="#1E1E31" transform="translate(136.5625,128.5625)"/>
<path d="M0 0 C3.14725364 0.04628314 5.67283035 0.24935271 8.671875 1.23046875 C11.22432708 4.24857087 12.36868774 7.53471112 13.671875 11.23046875 C14.6619634 13.56859237 15.66101498 15.90136264 16.671875 18.23046875 C17.45304687 20.03076538 17.45304687 20.03076538 18.25 21.86743164 C19.73615043 25.2794942 21.22511929 28.69032662 22.71484375 32.10083008 C23.35352115 33.56375976 23.99154076 35.02697679 24.62890625 36.49047852 C25.55835774 38.62453548 26.48989758 40.75767015 27.421875 42.890625 C27.70321289 43.53765884 27.98455078 44.18469269 28.27441406 44.85133362 C29.55997366 47.78787102 30.89413608 50.65737187 32.375 53.50170898 C33.671875 56.23046875 33.671875 56.23046875 33.671875 59.23046875 C29.381875 59.23046875 25.091875 59.23046875 20.671875 59.23046875 C17.13236594 53.26386776 14.47942655 47.36425824 12.07421875 40.86328125 C10.18795329 35.9768554 8.06366876 31.20741468 5.90673828 26.43530273 C3.671875 21.43757266 3.671875 21.43757266 3.671875 19.23046875 C3.011875 19.23046875 2.351875 19.23046875 1.671875 19.23046875 C1.26086548 20.27775146 1.26086548 20.27775146 0.84155273 21.34619141 C-0.3917922 24.387464 -1.70567852 27.38190063 -3.04296875 30.37890625 C-3.56439453 31.549375 -4.08582031 32.71984375 -4.62304688 33.92578125 C-5.17050466 35.15237422 -5.71803121 36.37893649 -6.265625 37.60546875 C-7.33787111 40.0088341 -8.40930363 42.41255852 -9.48046875 44.81640625 C-9.9791748 45.93499023 -10.47788086 47.05357422 -10.99169922 48.20605469 C-12.06520306 50.63546017 -13.11533105 53.07119709 -14.14453125 55.51953125 C-15.328125 58.23046875 -15.328125 58.23046875 -16.328125 59.23046875 C-18.34776699 59.30290928 -20.36979624 59.31424063 -22.390625 59.29296875 C-23.49535156 59.28394531 -24.60007813 59.27492187 -25.73828125 59.265625 C-27.02025391 59.24822266 -27.02025391 59.24822266 -28.328125 59.23046875 C-27.66228173 54.72464011 -25.97780731 50.81233877 -24.125 46.69140625 C-23.64549896 45.60915268 -23.64549896 45.60915268 -23.15631104 44.5050354 C-22.13497695 42.20304437 -21.10662338 39.90426639 -20.078125 37.60546875 C-19.40188996 36.08353488 -18.72610443 34.5614012 -18.05078125 33.0390625 C-3.53169249 0.34961385 -3.53169249 0.34961385 0 0 Z " fill="#212133" transform="translate(249.328125,168.76953125)"/>
<path d="M0 0 C5.65056651 3.357583 8.4845126 6.90121469 10.5 13.25 C10.5 16.88 10.5 20.51 10.5 24.25 C0.6 24.58 -9.3 24.91 -19.5 25.25 C-15.22043863 30.31718772 -15.22043863 30.31718772 -11.1875 31.25 C-7.25817235 31.25 -4.89019827 30.49547047 -1.39453125 28.84375 C0.97794291 28.10021171 2.18947985 28.39302429 4.5 29.25 C6.8125 31.0625 6.8125 31.0625 8.5 33.25 C8.27296814 35.72319808 7.9578001 36.8644197 6.0390625 38.48046875 C-1.71232254 42.35616127 -10.02727975 43.32513607 -18.4375 41.02734375 C-24.81535758 38.62356788 -28.52817124 34.7807819 -31.546875 28.703125 C-33.5597067 23.52255816 -34.35066038 18.99236705 -32.6796875 13.60546875 C-29.70776947 7.04166303 -25.67636535 2.25853391 -19.14453125 -0.8828125 C-12.98802389 -2.90163766 -5.88190495 -2.80300912 0 0 Z M-17.5 10.25 C-18.985 12.725 -18.985 12.725 -20.5 15.25 C-14.56 15.25 -8.62 15.25 -2.5 15.25 C-2.5 13.93 -2.5 12.61 -2.5 11.25 C-4.99915987 9.2506721 -6.81766239 8.3352922 -10 7.9375 C-12.90274545 8.30034318 -14.9302036 8.82984936 -17.5 10.25 Z " fill="#1B1B2E" transform="translate(353.5,186.75)"/>
<path d="M0 0 C4.52927941 3.14140847 7.05516736 6.37981015 8.50390625 11.7890625 C10.00531732 20.28275942 8.19463272 26.62249559 3.62890625 33.8515625 C3.13390625 34.3878125 2.63890625 34.9240625 2.12890625 35.4765625 C1.13890625 35.4765625 0.14890625 35.4765625 -0.87109375 35.4765625 C-0.87109375 36.1365625 -0.87109375 36.7965625 -0.87109375 37.4765625 C-6.77026061 40.90369753 -14.6529859 41.22732734 -21.24609375 39.7890625 C-27.20520369 37.63145373 -31.34044955 34.7725288 -34.87109375 29.4765625 C-37.26106791 24.33811805 -37.70698762 19.04377801 -36.87109375 13.4765625 C-35.49499231 9.95719506 -33.8034959 6.72023753 -31.87109375 3.4765625 C-31.21109375 3.4765625 -30.55109375 3.4765625 -29.87109375 3.4765625 C-29.62359375 2.579375 -29.62359375 2.579375 -29.37109375 1.6640625 C-23.26117239 -7.24623948 -7.91302005 -4.5471287 0 0 Z M-22.49609375 9.70703125 C-25.31506332 13.33485288 -25.15553142 18.04565571 -24.87109375 22.4765625 C-23.72657821 25.74570357 -22.83232792 26.27015272 -19.87109375 28.4765625 C-16.44629832 29.55837186 -13.44056524 29.94035896 -9.87109375 29.4765625 C-6.6629991 27.07049151 -5.08223327 24.79327179 -2.87109375 21.4765625 C-2.43448991 18.17084772 -2.16066647 15.66236863 -3.921875 12.72265625 C-5.70602394 10.53852112 -7.32928142 8.74746867 -9.87109375 7.4765625 C-16.55391475 7.04652385 -16.55391475 7.04652385 -22.49609375 9.70703125 Z " fill="#242436" transform="translate(432.87109375,188.5234375)"/>
<path d="M0 0 C4.00078832 2.53111098 5.0538452 4.68842254 7.0625 8.9375 C7.5575 9.9275 7.5575 9.9275 8.0625 10.9375 C8.38278539 15.07504988 8.48738127 19.2211501 8.62011719 23.36865234 C8.68724583 25.4296963 8.76500611 27.49015218 8.84375 29.55078125 C8.88757813 30.84371094 8.93140625 32.13664062 8.9765625 33.46875 C9.0173291 34.66048828 9.0580957 35.85222656 9.10009766 37.08007812 C9.0625 39.9375 9.0625 39.9375 8.0625 41.9375 C6.25007948 41.96437279 4.43754767 41.98383715 2.625 42 C1.61566406 42.01160156 0.60632813 42.02320313 -0.43359375 42.03515625 C-2.9375 41.9375 -2.9375 41.9375 -3.9375 40.9375 C-4.08365679 38.97455408 -4.16489691 37.00670534 -4.21875 35.0390625 C-4.25613281 33.83765625 -4.29351562 32.63625 -4.33203125 31.3984375 C-4.36683594 30.13257813 -4.40164063 28.86671875 -4.4375 27.5625 C-4.50630287 25.07540362 -4.57903519 22.58841193 -4.65625 20.1015625 C-4.68654297 18.99248535 -4.71683594 17.8834082 -4.74804688 16.74072266 C-4.82495901 13.8558928 -4.82495901 13.8558928 -5.9375 10.9375 C-7.51929615 10.82882698 -9.10327153 10.75160173 -10.6875 10.6875 C-11.56921875 10.64109375 -12.4509375 10.5946875 -13.359375 10.546875 C-16.82299856 11.07166645 -17.77873793 12.21265256 -19.9375 14.9375 C-20.57664976 17.92437874 -20.57664976 17.92437874 -20.546875 21.234375 C-20.57910156 22.43964844 -20.61132812 23.64492187 -20.64453125 24.88671875 C-20.66580078 26.76810547 -20.66580078 26.76810547 -20.6875 28.6875 C-20.71714844 29.95722656 -20.74679687 31.22695312 -20.77734375 32.53515625 C-20.84803951 35.66933485 -20.90074012 38.80276956 -20.9375 41.9375 C-24.5675 41.9375 -28.1975 41.9375 -31.9375 41.9375 C-31.9375 28.0775 -31.9375 14.2175 -31.9375 -0.0625 C-28.3075 -0.0625 -24.6775 -0.0625 -20.9375 -0.0625 C-20.9375 0.5975 -20.9375 1.2575 -20.9375 1.9375 C-20.174375 1.4425 -19.41125 0.9475 -18.625 0.4375 C-12.68186906 -1.98004479 -6.11865364 -2.12306732 0 0 Z " fill="#232235" transform="translate(477.9375,186.0625)"/>
<path d="M0 0 C12.57108141 -1.07168894 12.57108141 -1.07168894 15.9375 1.453125 C17.14612781 3.25095887 18.04790067 5.05838258 19 7 C20.41150957 8.73527802 20.41150957 8.73527802 22 10 C22.66 10 23.32 10 24 10 C24.2475 9.278125 24.495 8.55625 24.75 7.8125 C26.18625549 4.58092515 27.47287319 2.49387514 30 0 C33.453125 -0.48828125 33.453125 -0.48828125 37.25 -0.3125 C38.51328125 -0.26738281 39.7765625 -0.22226563 41.078125 -0.17578125 C42.04234375 -0.11777344 43.0065625 -0.05976563 44 0 C42.29620572 5.5347499 38.60885458 9.06524275 34.72460938 13.18359375 C31.77637226 16.41305391 31.77637226 16.41305391 30.9296875 20.5625 C32.23557933 23.53650184 33.85124762 25.90925474 35.8125 28.5 C36.49957031 29.4178125 37.18664062 30.335625 37.89453125 31.28125 C39.30800342 33.10643856 40.76511605 34.89858189 42.26171875 36.65625 C44 39 44 39 44 42 C39.49339868 42.68011209 35.4779428 42.95481791 31 42 C27.51547055 38.77282132 25.23887235 35.16660231 23 31 C19.18611684 32.67936419 18.07916741 34.40871084 16 38 C15.34 38 14.68 38 14 38 C13.67 39.32 13.34 40.64 13 42 C8.71 42 4.42 42 0 42 C0.97220542 38.11117833 1.9657556 36.31301066 4.25 33.125 C4.87390625 32.2484375 5.4978125 31.371875 6.140625 30.46875 C7.68444335 28.41897437 9.27735054 26.52184997 11 24.625 C13.25375434 22.29024881 13.25375434 22.29024881 12.79516602 20.07470703 C11.90612254 17.75505966 10.80610177 16.13600262 9.27734375 14.1796875 C8.73916016 13.47972656 8.20097656 12.77976563 7.64648438 12.05859375 C7.08251953 11.33800781 6.51855469 10.61742187 5.9375 9.875 C4.81732682 8.4382285 3.70121929 6.99827494 2.58984375 5.5546875 C2.09347412 4.92030762 1.59710449 4.28592773 1.08569336 3.63232422 C0 2 0 2 0 0 Z " fill="#111225" transform="translate(508,186)"/>
<path d="M0 0 C3.96 0 7.92 0 12 0 C23 21.44382022 23 21.44382022 23 26 C23.66 26 24.32 26 25 26 C25.350625 24.865625 25.70125 23.73125 26.0625 22.5625 C28.60656366 14.88090974 31.87449284 7.45840203 35 0 C38.96 0 42.92 0 47 0 C46.46147465 5.27754845 45.34981281 9.30037439 43 14 C42.34 14.33 41.68 14.66 41 15 C40.30189477 16.94240074 40.30189477 16.94240074 39.75 19.3125 C38.25384578 24.65261968 35.97324421 29.33852439 33.40234375 34.23828125 C31.78536276 37.32096238 31.78536276 37.32096238 30 42 C26.04 42 22.08 42 18 42 C13.93949861 34.19494402 10.30650873 26.45870374 7.265625 18.1875 C5.51792217 13.78587807 3.35996209 9.63861894 1.13671875 5.4609375 C0 3 0 3 0 0 Z " fill="#222134" transform="translate(275,186)"/>
<path d="M0 0 C0.66 0.33 1.32 0.66 2 1 C2 4.63 2 8.26 2 12 C0 13 0 13 -3.3125 12.375 C-6.93662702 11.72283301 -6.93662702 11.72283301 -9.875 13.125 C-12.56974501 15.50271619 -12.55825618 16.45665064 -13 20 C-13.08668001 23.0017507 -13.04873802 25.99773775 -13 29 C-12.9742977 30.58326178 -12.95333391 32.16660878 -12.9375 33.75 C-12.92589844 34.44609375 -12.91429687 35.1421875 -12.90234375 35.859375 C-13 38 -13 38 -14 43 C-17.63 43 -21.26 43 -25 43 C-25.1678224 37.66164927 -25.32836013 32.32314765 -25.48217773 26.984375 C-25.5355173 25.16855997 -25.59084022 23.35280207 -25.64819336 21.53710938 C-25.73032912 18.92590653 -25.80530897 16.31458074 -25.87890625 13.703125 C-25.90594131 12.89256653 -25.93297638 12.08200806 -25.96083069 11.24688721 C-26.05847508 7.55181397 -25.90403776 4.61615102 -25 1 C-21.37 1 -17.74 1 -14 1 C-14 1.66 -14 2.32 -14 3 C-13.175 2.505 -12.35 2.01 -11.5 1.5 C-7.20070654 -0.34255434 -4.6338198 -0.30892132 0 0 Z " fill="#0F0F24" transform="translate(394,185)"/>
<path d="M0 0 C-1 3 -1 3 -3.0625 4.1875 C-3.701875 4.455625 -4.34125 4.72375 -5 5 C-5 5.66 -5 6.32 -5 7 C-3.35 7 -1.7 7 0 7 C-0.33 7.99 -0.66 8.98 -1 10 C-2.2375 10.144375 -3.475 10.28875 -4.75 10.4375 C-8.9582327 10.87441158 -8.9582327 10.87441158 -13 12 C-13.33 12.99 -13.66 13.98 -14 15 C-14.66 15 -15.32 15 -16 15 C-16.51576582 21.33818882 -16.8645182 26.66611491 -12.64453125 31.76171875 C-9.61817189 34.0404739 -6.71433495 33.93704517 -3 34 C-3.99 34.99 -4.98 35.98 -6 37 C-6.66 36.67 -7.32 36.34 -8 36 C-10.09821215 36.39938767 -10.09821215 36.39938767 -12 37 C-12.33 38.32 -12.66 39.64 -13 41 C-17.19367478 40.75331325 -19.4537124 40.44696258 -22.75 37.75 C-27.49399374 31.95178543 -29.38911613 27.22992527 -29.3671875 19.78515625 C-28.73677185 15.00338646 -26.44108252 11.09753138 -24 7 C-23.34 7 -22.68 7 -22 7 C-21.7525 6.1028125 -21.7525 6.1028125 -21.5 5.1875 C-16.8844039 -1.54357764 -7.17318534 -0.32279334 0 0 Z " fill="#1F2031" transform="translate(425,185)"/>
<path d="M0 0 C7.25888325 0.98984772 7.25888325 0.98984772 10 3 C14.92473163 10.25565443 15.28224055 15.82665985 15.55761719 24.43115234 C15.62474583 26.4921963 15.70250611 28.55265218 15.78125 30.61328125 C15.82507813 31.90621094 15.86890625 33.19914062 15.9140625 34.53125 C15.9548291 35.72298828 15.9955957 36.91472656 16.03759766 38.14257812 C16 41 16 41 15 43 C13.18757948 43.02687279 11.37504767 43.04633715 9.5625 43.0625 C8.55316406 43.07410156 7.54382813 43.08570313 6.50390625 43.09765625 C4 43 4 43 3 42 C2.85384321 40.03705408 2.77260309 38.06920534 2.71875 36.1015625 C2.68136719 34.90015625 2.64398438 33.69875 2.60546875 32.4609375 C2.55326172 30.56214844 2.55326172 30.56214844 2.5 28.625 C2.43119713 26.13790362 2.35846481 23.65091193 2.28125 21.1640625 C2.25095703 20.05498535 2.22066406 18.9459082 2.18945312 17.80322266 C2.11254099 14.9183928 2.11254099 14.9183928 1 12 C-1.97 11.67 -4.94 11.34 -8 11 C-7.4225 10.5875 -6.845 10.175 -6.25 9.75 C-3.97483401 7.98042645 -2.00004601 6.07147622 0 4 C-0.66 3.67 -1.32 3.34 -2 3 C-1.34 2.01 -0.68 1.02 0 0 Z " fill="#2B2B3C" transform="translate(471,185)"/>
<path d="M0 0 C3.63 0 7.26 0 11 0 C11.16856005 4.85613474 11.32901217 9.71244709 11.48217773 14.5690918 C11.53532451 16.21890344 11.5906298 17.8686471 11.64819336 19.51831055 C11.7308734 21.89877669 11.80561351 24.27938476 11.87890625 26.66015625 C11.90594131 27.38960953 11.93297638 28.11906281 11.96083069 28.87062073 C12.09025195 33.37993497 11.75811136 37.55088181 11 42 C9.20866022 42.05391993 7.41686101 42.09275571 5.625 42.125 C4.62726563 42.14820313 3.62953125 42.17140625 2.6015625 42.1953125 C0 42 0 42 -2 40 C-1.34 40 -0.68 40 0 40 C0 26.8 0 13.6 0 0 Z " fill="#212134" transform="translate(493,186)"/>
<path d="M0 0 C0.99 0 1.98 0 3 0 C2.566875 0.804375 2.566875 0.804375 2.125 1.625 C0.88655993 4.06702583 0.88655993 4.06702583 0.125 7.125 C-1 10 -1 10 -3.125 11.375 C-3.74375 11.58125 -4.3625 11.7875 -5 12 C-5 12.66 -5 13.32 -5 14 C-6.62553283 15.70680947 -8.29115995 17.37660195 -10 19 C-6.27385847 17.88145414 -6.27385847 17.88145414 -4 15 C-2.68 15 -1.36 15 0 15 C0.1546875 13.88625 0.1546875 13.88625 0.3125 12.75 C1.05593565 9.77625741 2.09806725 8.35839661 4 6 C4.69580267 4.68163705 5.37224433 3.35208914 6 2 C6.66 3.65 7.32 5.3 8 7 C7.34 7 6.68 7 6 7 C6.33 7.66 6.66 8.32 7 9 C7.66 9 8.32 9 9 9 C9.66 7.35 10.32 5.7 11 4 C12.65 4.99 14.3 5.98 16 7 C15.67 6.401875 15.34 5.80375 15 5.1875 C14 3 14 3 14 0 C14.66 0 15.32 0 16 0 C16.25652344 0.52207031 16.51304687 1.04414063 16.77734375 1.58203125 C19.90388143 7.59298416 23.75488495 12.51864476 28.20703125 17.6171875 C30 20 30 20 30 23 C25.49339868 23.68011209 21.4779428 23.95481791 17 23 C13.51547055 19.77282132 11.23887235 16.16660231 9 12 C5.18611684 13.67936419 4.07916741 15.40871084 2 19 C1.34 19 0.68 19 0 19 C-0.33 20.32 -0.66 21.64 -1 23 C-5.29 23 -9.58 23 -14 23 C-13.02779458 19.11117833 -12.0342444 17.31301066 -9.75 14.125 C-9.12351562 13.24972656 -8.49703125 12.37445313 -7.8515625 11.47265625 C-6.33045136 9.44129897 -4.7755502 7.4881419 -3.125 5.5625 C-0.8390195 3.12065807 -0.8390195 3.12065807 0 0 Z " fill="#202033" transform="translate(522,205)"/>
<path d="M0 0 C5.65056651 3.357583 8.4845126 6.90121469 10.5 13.25 C10.5 16.88 10.5 20.51 10.5 24.25 C1.59 24.25 -7.32 24.25 -16.5 24.25 C-16.5 23.92 -16.5 23.59 -16.5 23.25 C-11.22 22.92 -5.94 22.59 -0.5 22.25 C-0.5 18.15985894 -1.68156311 14.89474581 -3.5 11.25 C-6.80986952 8.30789376 -11.30215384 9.11007179 -15.5 9.25 C-14.84 8.92 -14.18 8.59 -13.5 8.25 C-13.83 6.93 -14.16 5.61 -14.5 4.25 C-15.82 3.92 -17.14 3.59 -18.5 3.25 C-18.5 2.59 -18.5 1.93 -18.5 1.25 C-20.15 1.58 -21.8 1.91 -23.5 2.25 C-16.90308488 -2.98203613 -7.66218604 -3.67958087 0 0 Z " fill="#242335" transform="translate(353.5,186.75)"/>
<path d="M0 0 C3 1 3 1 4 3 C4.66 2.34 5.32 1.68 6 1 C6.25692627 1.60473145 6.51385254 2.20946289 6.77856445 2.83251953 C7.95459907 5.59751112 9.13352418 8.36126132 10.3125 11.125 C10.71662109 12.07632813 11.12074219 13.02765625 11.53710938 14.0078125 C13.19846315 17.89781157 14.86012558 21.72756485 16.79296875 25.4921875 C18 28 18 28 18 31 C13.71 31 9.42 31 5 31 C0.85223647 24.00805577 -2.64743476 16.80827605 -5 9 C-4.67 8.34 -4.34 7.68 -4 7 C-3.34 7.33 -2.68 7.66 -2 8 C-2.66 6.35 -3.32 4.7 -4 3 C-3.34 3 -2.68 3 -2 3 C-2 2.34 -2 1.68 -2 1 C-1.34 0.67 -0.68 0.34 0 0 Z M0 5 C1 7 1 7 1 7 Z " fill="#242436" transform="translate(265,197)"/>
<path d="M0 0 C0.88816406 0.01804688 1.77632812 0.03609375 2.69140625 0.0546875 C4.87870848 0.10172626 7.06379816 0.16742991 9.25 0.25 C9.23839844 0.93707031 9.22679687 1.62414062 9.21484375 2.33203125 C9.20582031 3.23308594 9.19679687 4.13414062 9.1875 5.0625 C9.17589844 5.95582031 9.16429687 6.84914062 9.15234375 7.76953125 C9.13990033 10.38413791 9.13990033 10.38413791 10.25 13.25 C12.56 13.25 14.87 13.25 17.25 13.25 C17.25 13.58 17.25 13.91 17.25 14.25 C6.36 14.25 -4.53 14.25 -15.75 14.25 C-15.42 12.27 -15.09 10.29 -14.75 8.25 C-14.646875 7.54875 -14.54375 6.8475 -14.4375 6.125 C-11.85938912 -0.9062115 -6.39167554 -0.24547055 0 0 Z " fill="#2E2E3F" transform="translate(135.75,207.75)"/>
<path d="M0 0 C0.7425 0.350625 1.485 0.70125 2.25 1.0625 C5.21122875 2.0720098 6.12062561 1.87980884 9 1 C9.1954384 3.89549503 9.38161395 6.79108998 9.5625 9.6875 C9.61857422 10.50412109 9.67464844 11.32074219 9.73242188 12.16210938 C9.78076172 12.95810547 9.82910156 13.75410156 9.87890625 14.57421875 C9.9260376 15.30213623 9.97316895 16.03005371 10.02172852 16.7800293 C10 19 10 19 9 24 C5.37 24 1.74 24 -2 24 C-2.05376941 20.70811731 -2.09356106 17.41710574 -2.125 14.125 C-2.14175781 13.18785156 -2.15851563 12.25070313 -2.17578125 11.28515625 C-2.18544922 9.94130859 -2.18544922 9.94130859 -2.1953125 8.5703125 C-2.20578613 7.74289551 -2.21625977 6.91547852 -2.22705078 6.06298828 C-2 4 -2 4 0 2 C0 1.34 0 0.68 0 0 Z " fill="#1E1D2F" transform="translate(371,204)"/>
<path d="M0 0 C12.60820248 -1.07485353 12.60820248 -1.07485353 15.97265625 1.5234375 C17.25 3.4375 17.25 3.4375 19 7 C19.66 7.33 20.32 7.66 21 8 C21.625 10.5625 21.625 10.5625 22 13 C21.01 13 20.02 13 19 13 C18.67 14.32 18.34 15.64 18 17 C16.68 16.67 15.36 16.34 14 16 C13.67 16.99 13.34 17.98 13 19 C10.82554873 16.21431795 8.66179961 13.42050802 6.5 10.625 C5.87996094 9.8309375 5.25992188 9.036875 4.62109375 8.21875 C4.03457031 7.45820313 3.44804687 6.69765625 2.84375 5.9140625 C2.29912109 5.2123291 1.75449219 4.5105957 1.19335938 3.78759766 C0 2 0 2 0 0 Z " fill="#29293A" transform="translate(508,186)"/>
<path d="M0 0 C0.66 0.33 1.32 0.66 2 1 C2 4.63 2 8.26 2 12 C0 13 0 13 -3.3125 12.4375 C-7.07719085 11.99084176 -8.69662547 12.2982616 -12 14 C-12 12.68 -12 11.36 -12 10 C-12.99 9.67 -13.98 9.34 -15 9 C-15 6.69 -15 4.38 -15 2 C-18.3 2.33 -21.6 2.66 -25 3 C-25 2.34 -25 1.68 -25 1 C-21.37 1 -17.74 1 -14 1 C-14 1.66 -14 2.32 -14 3 C-13.175 2.505 -12.35 2.01 -11.5 1.5 C-7.20070654 -0.34255434 -4.6338198 -0.30892132 0 0 Z " fill="#3B3A4B" transform="translate(394,185)"/>
<path d="M0 0 C1.93559313 -0.13504138 3.873872 -0.23201129 5.8125 -0.3125 C6.89144531 -0.37050781 7.97039062 -0.42851562 9.08203125 -0.48828125 C12 0 12 0 13.90625 2.29296875 C15.35350626 5.87492801 14.76112722 8.26355729 14 12 C14 12.99 14 13.98 14 15 C13.01 15.66 12.02 16.32 11 17 C10.01 16.67 9.02 16.34 8 16 C8.66 17.98 9.32 19.96 10 22 C7.25616805 19.77880271 6.12304405 17.27636013 4.828125 14.0390625 C3.58620684 10.98113193 2.16534198 8.00590118 0.76953125 5.015625 C0 3 0 3 0 0 Z " fill="#2D2C3E" transform="translate(275,186)"/>
<path d="M0 0 C1.87945313 0.08701172 1.87945313 0.08701172 3.796875 0.17578125 C5.06015625 0.22089844 6.3234375 0.26601562 7.625 0.3125 C8.58921875 0.37050781 9.5534375 0.42851562 10.546875 0.48828125 C9.08104165 5.0289949 6.50155767 8.25095094 3.421875 11.80078125 C2.71998047 12.62545898 2.71998047 12.62545898 2.00390625 13.46679688 C0.85735017 14.81224534 -0.29709951 16.15096025 -1.453125 17.48828125 C-1.783125 16.82828125 -2.113125 16.16828125 -2.453125 15.48828125 C-2.123125 14.82828125 -1.793125 14.16828125 -1.453125 13.48828125 C-2.401875 13.17890625 -3.350625 12.86953125 -4.328125 12.55078125 C-7.453125 11.48828125 -7.453125 11.48828125 -9.453125 10.48828125 C-7.63821894 5.19480524 -5.93217934 0.83882626 0 0 Z " fill="#242336" transform="translate(541.453125,185.51171875)"/>
<path d="M0 0 C2 1.5625 2 1.5625 3 4 C2.67272727 10.32727273 2.67272727 10.32727273 0 13 C-6.00458716 13.54587156 -6.00458716 13.54587156 -8.9375 11.9375 C-10.6140629 8.88023824 -10.36528977 6.4093712 -10 3 C-7.7810369 -1.04634448 -4.19567567 -0.52445946 0 0 Z " fill="#313141" transform="translate(502,168)"/>
<path d="M0 0 C1.0625 1.875 1.0625 1.875 2 4 C1.67 4.66 1.34 5.32 1 6 C0.34 6 -0.32 6 -1 6 C-0.34 6.66 0.32 7.32 1 8 C3.23344065 7.80109544 3.23344065 7.80109544 5.625 7.125 C6.44226563 6.92132813 7.25953125 6.71765625 8.1015625 6.5078125 C8.72804688 6.34023437 9.35453125 6.17265625 10 6 C8.43551329 11.6143991 6.83604813 16.86810338 4 22 C2.29115995 20.37660195 0.62553283 18.70680947 -1 17 C-1 16.34 -1 15.68 -1 15 C-2.32 15.33 -3.64 15.66 -5 16 C-5 16.66 -5 17.32 -5 18 C-5.99 18.33 -6.98 18.66 -8 19 C-8 18.34 -8 17.68 -8 17 C-7.34 17 -6.68 17 -6 17 C-5.81824219 16.443125 -5.63648438 15.88625 -5.44921875 15.3125 C-3.75137815 10.15803009 -1.93577765 5.06989385 0 0 Z " fill="#2E2E3F" transform="translate(306,195)"/>
<path d="M0 0 C0.33 0.99 0.66 1.98 1 3 C1.99 3.33 2.98 3.66 4 4 C3.67 5.65 3.34 7.3 3 9 C0.1253509 9.19586184 -2.74938283 9.38193799 -5.625 9.5625 C-6.83736328 9.64661133 -6.83736328 9.64661133 -8.07421875 9.73242188 C-12.56162516 10.00604422 -16.56862499 9.96801881 -21 9 C-19.75 7.5 -19.75 7.5 -18 6 C-16.68 6 -15.36 6 -14 6 C-14 6.66 -14 7.32 -14 8 C-13.34 7.34 -12.68 6.68 -12 6 C-13.32 5.34 -14.64 4.68 -16 4 C-15.360625 3.87625 -14.72125 3.7525 -14.0625 3.625 C-11.47575122 3.09709209 -8.89294725 2.55770957 -6.3125 2 C-5.54550781 1.835 -4.77851563 1.67 -3.98828125 1.5 C-1.94419856 1.06192301 -1.94419856 1.06192301 0 0 Z " fill="#0F0F20" transform="translate(351,201)"/>
<path d="M0 0 C2.97 0.495 2.97 0.495 6 1 C6 4.63 6 8.26 6 12 C-2.91 12 -11.82 12 -21 12 C-21 11.67 -21 11.34 -21 11 C-13.08 10.505 -13.08 10.505 -5 10 C-5 9.01 -5 8.02 -5 7 C-4 4.8125 -4 4.8125 -3 3 C-2.34 3 -1.68 3 -1 3 C-0.67 2.01 -0.34 1.02 0 0 Z " fill="#303041" transform="translate(358,199)"/>
<path d="M0 0 C5.69863014 3.39726027 5.69863014 3.39726027 7 6 C5.02 6.33 3.04 6.66 1 7 C1 7.66 1 8.32 1 9 C0.01 9.495 0.01 9.495 -1 10 C-1.99 11.485 -1.99 11.485 -3 13 C-3.515625 12.525625 -4.03125 12.05125 -4.5625 11.5625 C-7.66782675 9.57190593 -10.36632504 9.34939182 -14 9 C-14 8.67 -14 8.34 -14 8 C-11.36 8 -8.72 8 -6 8 C-6.33 7.34 -6.66 6.68 -7 6 C-7.99 5.67 -8.98 5.34 -10 5 C-10.33 4.01 -10.66 3.02 -11 2 C-6.9067431 -0.37980052 -4.55031571 -1.70636839 0 0 Z " fill="#313042" transform="translate(430,187)"/>
<path d="M0 0 C0.99 0 1.98 0 3 0 C2.566875 0.804375 2.566875 0.804375 2.125 1.625 C0.88655993 4.06702583 0.88655993 4.06702583 0.125 7.125 C-1 10 -1 10 -3.125 11.375 C-3.74375 11.58125 -4.3625 11.7875 -5 12 C-5 12.66 -5 13.32 -5 14 C-6.62553283 15.70680947 -8.29115995 17.37660195 -10 19 C-6.27385847 17.88145414 -6.27385847 17.88145414 -4 15 C-3.01 15.33 -2.02 15.66 -1 16 C-1.33 16.66 -1.66 17.32 -2 18 C-1.34 18 -0.68 18 0 18 C-0.33 19.65 -0.66 21.3 -1 23 C-5.29 23 -9.58 23 -14 23 C-13.02779458 19.11117833 -12.0342444 17.31301066 -9.75 14.125 C-9.12351562 13.24972656 -8.49703125 12.37445313 -7.8515625 11.47265625 C-6.33045136 9.44129897 -4.7755502 7.4881419 -3.125 5.5625 C-0.8390195 3.12065807 -0.8390195 3.12065807 0 0 Z " fill="#434251" transform="translate(522,205)"/>
<path d="M0 0 C3 1 3 1 4.421875 3.21484375 C5.07929688 4.56255859 5.07929688 4.56255859 5.75 5.9375 C6.19859375 6.83339844 6.6471875 7.72929687 7.109375 8.65234375 C7.55023438 9.81443359 7.55023438 9.81443359 8 11 C7.67 11.66 7.34 12.32 7 13 C6.484375 12.62875 5.96875 12.2575 5.4375 11.875 C1.70149128 10.53386866 -0.42871645 11.44162173 -4 13 C-5.86655399 15.73256279 -5.86655399 15.73256279 -7 19 C-8 21 -9 23 -10 25 C-10.66 25 -11.32 25 -12 25 C-10.80224277 20.90766281 -9.18845372 17.46149657 -7.015625 13.796875 C-5.01940959 10.26510928 -3.37463721 6.58180157 -2.4375 2.625 C-2.293125 2.08875 -2.14875 1.5525 -2 1 C-1.34 0.67 -0.68 0.34 0 0 Z " fill="#3A3848" transform="translate(134,153)"/>
<path d="M0 0 C1.32 0.66 2.64 1.32 4 2 C4.66 1.34 5.32 0.68 6 0 C7.00873016 1.26391488 8.00671822 2.53640883 9 3.8125 C9.8353125 4.87404297 9.8353125 4.87404297 10.6875 5.95703125 C12 8 12 8 12 11 C0.20807175 11.92017937 0.20807175 11.92017937 -2.75390625 9.6640625 C-3.8125 8 -3.8125 8 -5 5 C-3.68 4.67 -2.36 4.34 -1 4 C-0.67 2.68 -0.34 1.36 0 0 Z " fill="#373646" transform="translate(540,217)"/>
<path d="M0 0 C3.81477116 0.54496731 5.52338148 2.11061173 8 5 C9.3125 7.0625 9.3125 7.0625 10 9 C9.67 9.99 9.34 10.98 9 12 C7.68 11.67 6.36 11.34 5 11 C5 12.65 5 14.3 5 16 C4.67 15.34 4.34 14.68 4 14 C2.35 14.66 0.7 15.32 -1 16 C-1.19573608 14.56359829 -1.38127816 13.12580496 -1.5625 11.6875 C-1.66691406 10.88699219 -1.77132813 10.08648437 -1.87890625 9.26171875 C-2 7 -2 7 -1 4 C-0.34 4 0.32 4 1 4 C0.67 2.68 0.34 1.36 0 0 Z " fill="#212133" transform="translate(353,188)"/>
<path d="M0 0 C2.70324197 1.18266836 4.20091531 2.54285318 6 4.875 C5.8359375 6.87109375 5.8359375 6.87109375 5 8.875 C0.78681984 12.13292452 -3.70432023 13.40456798 -9 12.875 C-8.319375 11.76125 -8.319375 11.76125 -7.625 10.625 C-6.31359204 8.40569422 -5.11719197 6.19532178 -4 3.875 C-5.65 3.875 -7.3 3.875 -9 3.875 C-2.91428571 -0.18214286 -2.91428571 -0.18214286 0 0 Z " fill="#323242" transform="translate(356,215.125)"/>
<path d="M0 0 C0.33 0.99 0.66 1.98 1 3 C0.67 3.66 0.34 4.32 0 5 C1.98 4.34 3.96 3.68 6 3 C6.33 4.32 6.66 5.64 7 7 C7.99 7 8.98 7 10 7 C10.33 6.01 10.66 5.02 11 4 C10.45276317 7.37462715 9.9451 9.08235 8 12 C5.1796875 12.29296875 5.1796875 12.29296875 1.875 12.1875 C0.23144531 12.14689453 0.23144531 12.14689453 -1.4453125 12.10546875 C-2.28835937 12.07066406 -3.13140625 12.03585938 -4 12 C-3.21775257 7.6027062 -1.82845741 4.05440555 0 0 Z " fill="#201E30" transform="translate(225,216)"/>
<path d="M0 0 C0.66 0.66 1.32 1.32 2 2 C5.74113725 4.4461282 9.64603495 4.56460349 14 5 C13.01 5.99 12.02 6.98 11 8 C10.34 7.67 9.68 7.34 9 7 C6.90178785 7.39938767 6.90178785 7.39938767 5 8 C4.67 9.32 4.34 10.64 4 12 C2.35 12 0.7 12 -1 12 C-1.12375 11.360625 -1.2475 10.72125 -1.375 10.0625 C-1.58125 9.381875 -1.7875 8.70125 -2 8 C-2.66 7.67 -3.32 7.34 -4 7 C-2.92598892 4.08482708 -2.22189824 2.22189824 0 0 Z " fill="#161729" transform="translate(408,214)"/>
<path d="M0 0 C0.12375 1.134375 0.2475 2.26875 0.375 3.4375 C0.58125 4.613125 0.7875 5.78875 1 7 C1.66 7.33 2.32 7.66 3 8 C2.67 11.3 2.34 14.6 2 18 C1.67 17.34 1.34 16.68 1 16 C0.34 16 -0.32 16 -1 16 C-0.855625 15.113125 -0.71125 14.22625 -0.5625 13.3125 C-0.64930353 10.05398496 -0.64930353 10.05398496 -2.453125 8.55859375 C-4.26205971 7.28549894 -6.09609329 6.12522109 -8 5 C-8.99 4.34 -9.98 3.68 -11 3 C-8.21756596 -1.17365106 -4.53441502 -0.22300402 0 0 Z " fill="#1E1D30" transform="translate(379,187)"/>
<path d="M0 0 C4.875 1.75 4.875 1.75 6 4 C6.99 4.33 7.98 4.66 9 5 C8.67 6.32 8.34 7.64 8 9 C7.34 9 6.68 9 6 9 C6 9.99 6 10.98 6 12 C4.68 12.33 3.36 12.66 2 13 C2 11.68 2 10.36 2 9 C0.02 9.33 -1.96 9.66 -4 10 C-3.67 7.69 -3.34 5.38 -3 3 C-2.01 2.67 -1.02 2.34 0 2 C0 1.34 0 0.68 0 0 Z " fill="#18182B" transform="translate(229,211)"/>
<path d="M0 0 C2.76276177 0.52268466 5.3260876 1.10869587 8 2 C9.134375 1.814375 10.26875 1.62875 11.4375 1.4375 C15.13991626 0.9828173 15.9389312 1.23063496 19 3 C12.06480237 7.97337994 12.06480237 7.97337994 8.5 8.0625 C4.91207963 6.53763384 1.43910748 4.83475957 -2 3 C-1.34 2.01 -0.68 1.02 0 0 Z " fill="#2D2C3D" transform="translate(126,258)"/>
<path d="M0 0 C-0.99 0.495 -0.99 0.495 -2 1 C-1.34 1.66 -0.68 2.32 0 3 C-0.375 5.625 -0.375 5.625 -1 8 C-8.13846154 10.33846154 -8.13846154 10.33846154 -12.5 8.625 C-13.7375 7.820625 -13.7375 7.820625 -15 7 C-14.01 6.67 -13.02 6.34 -12 6 C-11.67 5.01 -11.34 4.02 -11 3 C-10.01 3 -9.02 3 -8 3 C-7.67 2.01 -7.34 1.02 -7 0 C-3.86650268 -1.04449911 -3.01031744 -0.93423645 0 0 Z " fill="#0F0F24" transform="translate(142,251)"/>
<path d="M0 0 C0.33 0.66 0.66 1.32 1 2 C1.66 2 2.32 2 3 2 C2.67 4.64 2.34 7.28 2 10 C0.02 10 -1.96 10 -4 10 C-4 9.34 -4 8.68 -4 8 C-4.99 7.67 -5.98 7.34 -7 7 C-6.67 5.02 -6.34 3.04 -6 1 C-3 0 -3 0 0 0 Z " fill="#1B192C" transform="translate(185,178)"/>
<path d="M0 0 C6.70459519 5.0940919 6.70459519 5.0940919 7.9375 8.875 C7.958125 9.57625 7.97875 10.2775 8 11 C7.01 11 6.02 11 5 11 C4.67 12.32 4.34 13.64 4 15 C2.68 14.67 1.36 14.34 0 14 C-0.33 14.99 -0.66 15.98 -1 17 C-1.99 15.35 -2.98 13.7 -4 12 C-3.34 12 -2.68 12 -2 12 C-1.34 11.01 -0.68 10.02 0 9 C0.66 9 1.32 9 2 9 C2.33 7.68 2.66 6.36 3 5 C2.01 5 1.02 5 0 5 C0 3.35 0 1.7 0 0 Z " fill="#333242" transform="translate(522,188)"/>
<path d="M0 0 C3.71888239 0.50712033 6.73454239 1.11608215 10 3 C10 3.66 10 4.32 10 5 C3.375 7.125 3.375 7.125 0 6 C0 5.34 0 4.68 0 4 C-0.66 3.67 -1.32 3.34 -2 3 C-1.34 2.01 -0.68 1.02 0 0 Z M-1 6 C-0.01 7.32 0.98 8.64 2 10 C1.67 10.66 1.34 11.32 1 12 C-1.97 11.67 -4.94 11.34 -8 11 C-5.702779 9.25728062 -3.40133271 7.60088848 -1 6 Z " fill="#2E283F" transform="translate(471,185)"/>
<path d="M0 0 C0.99 1.32 1.98 2.64 3 4 C2.01 4.495 2.01 4.495 1 5 C1.33 5.66 1.66 6.32 2 7 C3.32 7 4.64 7 6 7 C6 7.66 6 8.32 6 9 C6.66 9.33 7.32 9.66 8 10 C5 11 5 11 1 11 C-1.28239171 13.92321965 -1.28239171 13.92321965 -3 17 C-4.32 16.67 -5.64 16.34 -7 16 C-7 15.34 -7 14.68 -7 14 C-6.34 13.67 -5.68 13.34 -5 13 C-4.7834375 11.8553125 -4.7834375 11.8553125 -4.5625 10.6875 C-3.93649742 7.6965988 -2.84374058 6.38149825 -1 4 C-0.29485154 1.85266073 -0.29485154 1.85266073 0 0 Z " fill="#282738" transform="translate(527,207)"/>
<path d="M0 0 C0.33 0 0.66 0 1 0 C1.69437747 1.99054876 2.35610218 3.99255385 3 6 C3.28875 6.86625 3.5775 7.7325 3.875 8.625 C4 11 4 11 2.3125 13.3125 C0 15 0 15 -4 15 C-4.66 13.02 -5.32 11.04 -6 9 C-3 8 -3 8 -1 8 C-1 7.01 -1 6.02 -1 5 C-0.68911632 3.32900023 -0.35919668 1.66128463 0 0 Z " fill="#0F1023" transform="translate(289,193)"/>
<path d="M0 0 C2.91517292 1.07401108 4.77810176 1.77810176 7 4 C7 5.32 7 6.64 7 8 C4.03 8.66 1.06 9.32 -2 10 C-2.33 9.01 -2.66 8.02 -3 7 C-2.34 6.34 -1.68 5.68 -1 5 C-0.35232207 2.42938689 -0.35232207 2.42938689 0 0 Z " fill="#101023" transform="translate(308,194)"/>
<path d="M0 0 C3.2578125 -0.29296875 3.2578125 -0.29296875 7.125 -0.1875 C9.04699219 -0.14689453 9.04699219 -0.14689453 11.0078125 -0.10546875 C11.99523437 -0.07066406 12.98265625 -0.03585938 14 0 C12.41996314 4.39309313 10.44802976 6.82418312 7 10 C7 9.01 7 8.02 7 7 C6.34 6.67 5.68 6.34 5 6 C6.32 4.68 7.64 3.36 9 2 C4.69666114 1.63114238 2.53339666 2.58241281 -1 5 C-1.99 5.66 -2.98 6.32 -4 7 C-2.79618552 4.50638429 -1.54571278 2.31856917 0 0 Z " fill="#363443" transform="translate(538,186)"/>
<path d="M0 0 C1.32 0 2.64 0 4 0 C3.40268456 5.37583893 3.40268456 5.37583893 1.75 7.9375 C0 9 0 9 -2.6875 8.6875 C-3.450625 8.460625 -4.21375 8.23375 -5 8 C-5.33 6.68 -5.66 5.36 -6 4 C-4.125 2.9375 -4.125 2.9375 -2 2 C-1.34 2.33 -0.68 2.66 0 3 C0 2.01 0 1.02 0 0 Z " fill="#151526" transform="translate(391,187)"/>
<path d="M0 0 C0.33 0.66 0.66 1.32 1 2 C-0.32 1.67 -1.64 1.34 -3 1 C-2.01 0.67 -1.02 0.34 0 0 Z M-3 3 C-3.33 3.99 -3.66 4.98 -4 6 C-3.34 6.33 -2.68 6.66 -2 7 C-1.375 10.0625 -1.375 10.0625 -1 13 C-3.93375101 12.32942834 -5.61941083 11.5040235 -7.4453125 9.0859375 C-8.6840771 7.08267818 -9.87054327 5.06666551 -11 3 C-7.71303767 2.20046862 -6.28976808 1.90341064 -3 3 Z " fill="#353546" transform="translate(333,212)"/>
<path d="M0 0 C0.33 0 0.66 0 1 0 C1.19430855 2.6246601 1.38073238 5.24946765 1.5625 7.875 C1.61857422 8.62136719 1.67464844 9.36773437 1.73242188 10.13671875 C2.11328125 15.7734375 2.11328125 15.7734375 1 18 C-1.31 18 -3.62 18 -6 18 C-6 17.67 -6 17.34 -6 17 C-4.02 17 -2.04 17 0 17 C-0.95207652 14.55180323 -1.87505878 12.21700318 -3.1875 9.9375 C-4 8 -4 8 -3.75 5.8125 C-3 4 -3 4 -1 3 C-0.67 2.01 -0.34 1.02 0 0 Z " fill="#4E4F5F" transform="translate(485,210)"/>
<path d="M0 0 C0.66 0.66 1.32 1.32 2 2 C-1.625 8.75 -1.625 8.75 -5 11 C-6.32 11 -7.64 11 -9 11 C-8.67 10.01 -8.34 9.02 -8 8 C-7.01 8 -6.02 8 -5 8 C-5 6.35 -5 4.7 -5 3 C-4.34 3 -3.68 3 -3 3 C-3 2.34 -3 1.68 -3 1 C-2.01 0.67 -1.02 0.34 0 0 Z " fill="#100F20" transform="translate(351,218)"/>
<path d="M0 0 C0.99 0.33 1.98 0.66 3 1 C5.00875442 0.72428861 7.01178687 0.39764263 9 0 C8.67 1.32 8.34 2.64 8 4 C7.34 4 6.68 4 6 4 C6 4.66 6 5.32 6 6 C4.02 6.66 2.04 7.32 0 8 C-0.38063221 5.6739143 -0.71269945 3.33944736 -1 1 C-0.67 0.67 -0.34 0.34 0 0 Z " fill="#101124" transform="translate(472,190)"/>
<path d="M0 0 C4.75 0.75 4.75 0.75 7 3 C6.67 3.99 6.34 4.98 6 6 C5.34 5.01 4.68 4.02 4 3 C2.68 3 1.36 3 0 3 C0 6.11257569 0.17361624 8.10765685 1 11 C-1.475 10.01 -1.475 10.01 -4 9 C-3.46930939 5.17902761 -2.50298434 2.93828597 0 0 Z " fill="#131224" transform="translate(263,195)"/>
<path d="M0 0 C0.99 0 1.98 0 3 0 C2.566875 0.804375 2.566875 0.804375 2.125 1.625 C0.88655993 4.06702583 0.88655993 4.06702583 0.125 7.125 C-1 10 -1 10 -3.125 11.375 C-3.74375 11.58125 -4.3625 11.7875 -5 12 C-5 12.66 -5 13.32 -5 14 C-6.32 14.33 -7.64 14.66 -9 15 C-7.67917738 10.64128534 -5.37068021 7.92381578 -2.33984375 4.6484375 C-0.77953445 2.92688805 -0.77953445 2.92688805 0 0 Z " fill="#4E4D59" transform="translate(522,205)"/>
<path d="M0 0 C1.36511719 0.29197266 1.36511719 0.29197266 2.7578125 0.58984375 C3.45648438 0.74582031 4.15515625 0.90179688 4.875 1.0625 C3.885 2.0525 2.895 3.0425 1.875 4.0625 C1.215 3.7325 0.555 3.4025 -0.125 3.0625 C-2.22321215 3.46188767 -2.22321215 3.46188767 -4.125 4.0625 C-4.455 5.3825 -4.785 6.7025 -5.125 8.0625 C-6.445 7.4025 -7.765 6.7425 -9.125 6.0625 C-8.135 5.4025 -7.145 4.7425 -6.125 4.0625 C-6.455 2.7425 -6.785 1.4225 -7.125 0.0625 C-4.4030754 -1.2984623 -2.9418043 -0.64116248 0 0 Z " fill="#0E0E20" transform="translate(417.125,217.9375)"/>
<path d="M0 0 C1.4540625 0.0309375 1.4540625 0.0309375 2.9375 0.0625 C1.1875 3.9375 1.1875 3.9375 -1.0625 5.0625 C-0.7325 6.3825 -0.4025 7.7025 -0.0625 9.0625 C-1.7125 8.7325 -3.3625 8.4025 -5.0625 8.0625 C-4.046875 0.08258929 -4.046875 0.08258929 0 0 Z " fill="#121125" transform="translate(545.0625,186.9375)"/>
<path d="M0 0 C1.32 0.66 2.64 1.32 4 2 C3.01 2.33 2.02 2.66 1 3 C0.34 2.34 -0.32 1.68 -1 1 C-0.67 0.67 -0.34 0.34 0 0 Z M-1 3 C-0.01 3.33 0.98 3.66 2 4 C2 6.64 2 9.28 2 12 C0.68 12 -0.64 12 -2 12 C-3 9 -3 9 -2 6 C-1.34 6 -0.68 6 0 6 C-0.33 5.01 -0.66 4.02 -1 3 Z " fill="#100F21" transform="translate(147,201)"/>
<path d="M0 0 C1.32 0.66 2.64 1.32 4 2 C4 2.99 4 3.98 4 5 C2.02253397 5.73080266 0.01927511 6.39421747 -2 7 C-2.66 6.67 -3.32 6.34 -4 6 C-3.6875 4.125 -3.6875 4.125 -3 2 C-2.01 1.34 -1.02 0.68 0 0 Z " fill="#0D0E21" transform="translate(326,209)"/>
<path d="M0 0 C3.05936637 3.75467691 5 7.08113061 5 12 C2.69 12 0.38 12 -2 12 C-1.34 11.67 -0.68 11.34 0 11 C0.72693904 9.02111039 1.39816251 7.02045442 2 5 C0.68 4.34 -0.64 3.68 -2 3 C-2 2.34 -2 1.68 -2 1 C-1.34 0.67 -0.68 0.34 0 0 Z " fill="#72707F" transform="translate(278,216)"/>
<path d="M0 0 C3.96 0 7.92 0 12 0 C12 0.33 12 0.66 12 1 C11.38511719 1.00257813 10.77023437 1.00515625 10.13671875 1.0078125 C7.63060659 1.12772217 5.41820772 1.31893615 3 2 C1.04901119 4.90074931 1.04901119 4.90074931 0 8 C-0.99 8.33 -1.98 8.66 -3 9 C-2.01 6.03 -1.02 3.06 0 0 Z " fill="#585763" transform="translate(310,186)"/>
<path d="M0 0 C0.33 0.66 0.66 1.32 1 2 C1.66 2.33 2.32 2.66 3 3 C3.33 3.99 3.66 4.98 4 6 C7.00007271 7.70855022 7.00007271 7.70855022 10 9 C10 9.33 10 9.66 10 10 C3.65492958 10.35915493 3.65492958 10.35915493 1.0625 8.9375 C-0.55479605 5.98831309 -0.18630138 3.29132441 0 0 Z " fill="#464554" transform="translate(492,171)"/>
<path d="M0 0 C0 1.65 0 3.3 0 5 C-2.31 5.33 -4.62 5.66 -7 6 C-6.625 3.5625 -6.625 3.5625 -6 1 C-4 0 -4 0 0 0 Z " fill="#101022" transform="translate(280,221)"/>
<path d="M0 0 C0.33 0 0.66 0 1 0 C1 1.65 1 3.3 1 5 C0.01 5 -0.98 5 -2 5 C-2 5.99 -2 6.98 -2 8 C-2.99 8.33 -3.98 8.66 -5 9 C-5 8.01 -5 7.02 -5 6 C-6.65 6.33 -8.3 6.66 -10 7 C-10 6.34 -10 5.68 -10 5 C-8.35 5 -6.7 5 -5 5 C-5 4.34 -5 3.68 -5 3 C-3.35 2.67 -1.7 2.34 0 2 C0 1.34 0 0.68 0 0 Z " fill="#75757C" transform="translate(190,172)"/>
<path d="M0 0 C0.99 0.495 0.99 0.495 2 1 C1.67 2.65 1.34 4.3 1 6 C2.65 6.33 4.3 6.66 6 7 C5.525625 7.61875 5.05125 8.2375 4.5625 8.875 C2.97582559 10.90705546 2.97582559 10.90705546 2 13 C1.34 13 0.68 13 0 13 C0 8.71 0 4.42 0 0 Z " fill="#161627" transform="translate(369,195)"/>
<path d="M0 0 C1.79378179 2.69067269 2.97313958 5.08578257 4.1875 8.0625 C4.55230469 8.94035156 4.91710937 9.81820312 5.29296875 10.72265625 C6 13 6 13 5 15 C3.35 15 1.7 15 0 15 C0.33 13.68 0.66 12.36 1 11 C1.66 11 2.32 11 3 11 C2.505 10.113125 2.01 9.22625 1.5 8.3125 C0.05621326 5.12413762 -0.30159922 3.41812454 0 0 Z " fill="#514F60" transform="translate(290,193)"/>
<path d="M0 0 C1.32 0.33 2.64 0.66 4 1 C4 4 4 4 3 7 C1.68 6.67 0.36 6.34 -1 6 C-1 3 -1 3 0 0 Z M-1 7 C0.485 7.99 0.485 7.99 2 9 C1.01 9.33 0.02 9.66 -1 10 C-1 9.01 -1 8.02 -1 7 Z " fill="#0F1022" transform="translate(467,185)"/>
<path d="M0 0 C0.6875 1.75 0.6875 1.75 1 4 C-0.09375 6.125 -0.09375 6.125 -2 8 C-4.91796875 8.390625 -4.91796875 8.390625 -8.1875 8.25 C-9.27417969 8.21390625 -10.36085937 8.1778125 -11.48046875 8.140625 C-12.72763672 8.07101563 -12.72763672 8.07101563 -14 8 C-13.67 7.01 -13.34 6.02 -13 5 C-13 5.66 -13 6.32 -13 7 C-10.03 7 -7.06 7 -4 7 C-3.67 5.68 -3.34 4.36 -3 3 C-2.01 3 -1.02 3 0 3 C0 2.01 0 1.02 0 0 Z " fill="#7E7D8A" transform="translate(235,220)"/>
<path d="M0 0 C0.66 0 1.32 0 2 0 C2 0.66 2 1.32 2 2 C2.66 2 3.32 2 4 2 C3.34 3.98 2.68 5.96 2 8 C0.68 8 -0.64 8 -2 8 C-1.125 1.125 -1.125 1.125 0 0 Z " fill="#111124" transform="translate(237,192)"/>
<path d="M0 0 C0.433125 0.9590625 0.433125 0.9590625 0.875 1.9375 C1.82823451 4.15206079 1.82823451 4.15206079 4 5 C3.01 5 2.02 5 1 5 C0.34 6.32 -0.32 7.64 -1 9 C-1 8.34 -1 7.68 -1 7 C-1.66 7 -2.32 7 -3 7 C-3.1875 4.625 -3.1875 4.625 -3 2 C-2.01 1.34 -1.02 0.68 0 0 Z " fill="#3A394B" transform="translate(180,186)"/>
<path d="M0 0 C-0.66 1.65 -1.32 3.3 -2 5 C-3.32 5 -4.64 5 -6 5 C-6 4.34 -6 3.68 -6 3 C-7.65 3.33 -9.3 3.66 -11 4 C-7.2060585 0.99101192 -4.96966376 0 0 0 Z " fill="#37364E" transform="translate(341,185)"/>
<path d="M0 0 C0 3.63 0 7.26 0 11 C-1.65 11 -3.3 11 -5 11 C-4.690625 10.401875 -4.38125 9.80375 -4.0625 9.1875 C-2.89790296 6.91043228 -2.89790296 6.91043228 -2 4 C-2.66 3.67 -3.32 3.34 -4 3 C-1.125 0 -1.125 0 0 0 Z " fill="#4F4F5B" transform="translate(364,200)"/>
<path d="M0 0 C0.33 0 0.66 0 1 0 C1 3.63 1 7.26 1 11 C0.01 11.495 0.01 11.495 -1 12 C-1.99 11.67 -2.98 11.34 -4 11 C-3.42655063 8.13275314 -3.1385485 7.1385485 -1 5 C-0.35232207 2.42938689 -0.35232207 2.42938689 0 0 Z " fill="#56555F" transform="translate(395,186)"/>
<path d="M0 0 C0.66 0.99 1.32 1.98 2 3 C1.125 5.6875 1.125 5.6875 0 8 C0.66 8.33 1.32 8.66 2 9 C0.02 9 -1.96 9 -4 9 C-3.35455571 5.51460083 -1.89865603 2.97180943 0 0 Z " fill="#101121" transform="translate(125,212)"/>
<path d="M0 0 C5.28 0 10.56 0 16 0 C13.09822102 1.93451932 11.88813053 2.39188906 8.5625 2.8125 C7.80066406 2.92207031 7.03882813 3.03164062 6.25390625 3.14453125 C4 3 4 3 0 0 Z " fill="#403F4E" transform="translate(333,202)"/>
<path d="M0 0 C-0.33 1.32 -0.66 2.64 -1 4 C-1.61875 3.79375 -2.2375 3.5875 -2.875 3.375 C-3.57625 3.25125 -4.2775 3.1275 -5 3 C-5.66 3.66 -6.32 4.32 -7 5 C-9.625 4.625 -9.625 4.625 -12 4 C-7.82050327 1.21366885 -5.06624674 0 0 0 Z " fill="#444351" transform="translate(417,185)"/>
<path d="M0 0 C2.6015625 -0.29296875 2.6015625 -0.29296875 5.625 -0.1875 C7.12933594 -0.14689453 7.12933594 -0.14689453 8.6640625 -0.10546875 C9.43492187 -0.07066406 10.20578125 -0.03585938 11 0 C11 0.33 11 0.66 11 1 C9.4221875 1.1546875 9.4221875 1.1546875 7.8125 1.3125 C4.07068859 1.98725288 2.0766327 2.86344952 -1 5 C-1.99 5.66 -2.98 6.32 -4 7 C-2.79618552 4.50638429 -1.54571278 2.31856917 0 0 Z " fill="#625E6C" transform="translate(538,186)"/>
<path d="M0 0 C0.66 0 1.32 0 2 0 C2 0.66 2 1.32 2 2 C1.34 2 0.68 2 0 2 C-0.66 3.98 -1.32 5.96 -2 8 C-2.99 7.67 -3.98 7.34 -5 7 C-4.67 5.68 -4.34 4.36 -4 3 C-3.01 3 -2.02 3 -1 3 C-0.67 2.01 -0.34 1.02 0 0 Z " fill="#111223" transform="translate(173,213)"/>
<path d="M0 0 C2.4375 0.375 2.4375 0.375 5 1 C5.33 1.66 5.66 2.32 6 3 C5.67 3.66 5.34 4.32 5 5 C2.03 4.67 -0.94 4.34 -4 4 C-3.34 3.525625 -2.68 3.05125 -2 2.5625 C-1.34 2.046875 -0.68 1.53125 0 1 C0 0.67 0 0.34 0 0 Z " fill="#4D4E5D" transform="translate(467,192)"/>
<path d="M0 0 C0 3.19610552 -0.54671542 4.41717626 -2 7.1875 C-2.37125 7.90292969 -2.7425 8.61835938 -3.125 9.35546875 C-3.558125 10.16951172 -3.558125 10.16951172 -4 11 C-4.66 11 -5.32 11 -6 11 C-3.76687117 3.98159509 -3.76687117 3.98159509 -2 1 C-1.34 0.67 -0.68 0.34 0 0 Z " fill="#545462" transform="translate(128,167)"/>
<path d="M0 0 C0.6875 1.8125 0.6875 1.8125 1 4 C-0.4375 5.75 -0.4375 5.75 -2 7 C-2.99 6.67 -3.98 6.34 -5 6 C-5 5.34 -5 4.68 -5 4 C-4.34 4 -3.68 4 -3 4 C-2.67 3.01 -2.34 2.02 -2 1 C-1.34 0.67 -0.68 0.34 0 0 Z " fill="#121325" transform="translate(158,217)"/>
<path d="M0 0 C1.32 0 2.64 0 4 0 C3.38722388 2.96175123 2.74627478 4.38058783 1 7 C-1 4 -1 4 -0.625 1.8125 C-0.41875 1.214375 -0.2125 0.61625 0 0 Z " fill="#2F2F3F" transform="translate(401,192)"/>
<path d="M0 0 C2.31 0 4.62 0 7 0 C7 1.65 7 3.3 7 5 C4.69 4.01 2.38 3.02 0 2 C0 1.34 0 0.68 0 0 Z " fill="#121122" transform="translate(496,187)"/>
<path d="M0 0 C1.98 0.495 1.98 0.495 4 1 C4 1.99 4 2.98 4 4 C3.34 4 2.68 4 2 4 C2 4.66 2 5.32 2 6 C1.01 5.67 0.02 5.34 -1 5 C-0.67 3.35 -0.34 1.7 0 0 Z " fill="#151527" transform="translate(99,144)"/>
<path d="M0 0 C0.99 0 1.98 0 3 0 C1.66666667 2.66666667 0.33333333 5.33333333 -1 8 C-1.99 7.67 -2.98 7.34 -4 7 C-3.525625 6.21625 -3.05125 5.4325 -2.5625 4.625 C-1.66101977 3.11051322 -0.78820515 1.5764103 0 0 Z " fill="#454452" transform="translate(522,205)"/>
<path d="M0 0 C1.1875 1.625 1.1875 1.625 2 4 C0.8125 7.1875 0.8125 7.1875 -1 10 C-1.99 10.33 -2.98 10.66 -4 11 C-3.52269162 9.5410574 -3.04308958 8.08286504 -2.5625 6.625 C-2.29566406 5.81289062 -2.02882812 5.00078125 -1.75390625 4.1640625 C-1 2 -1 2 0 0 Z " fill="#51506A" transform="translate(235,193)"/>
<path d="M0 0 C0.33 0.66 0.66 1.32 1 2 C2.65 2 4.3 2 6 2 C5.67 2.99 5.34 3.98 5 5 C2.69 5 0.38 5 -2 5 C-2 4.34 -2 3.68 -2 3 C-1.34 3 -0.68 3 0 3 C0 2.01 0 1.02 0 0 Z " fill="#111124" transform="translate(419,190)"/>
<path d="M0 0 C0.99 0 1.98 0 3 0 C3 0.66 3 1.32 3 2 C3.99 1.67 4.98 1.34 6 1 C6.66 2.65 7.32 4.3 8 6 C2.33846154 4.52307692 2.33846154 4.52307692 0.625 1.875 C0.41875 1.25625 0.2125 0.6375 0 0 Z " fill="#101225" transform="translate(494,174)"/>
<path d="M0 0 C0.66 1.32 1.32 2.64 2 4 C2.99 3.67 3.98 3.34 5 3 C5.99 3.66 6.98 4.32 8 5 C5.09399739 6.25664978 3.20395416 7 0 7 C0 4.69 0 2.38 0 0 Z " fill="#60616B" transform="translate(177,170)"/>
<path d="M0 0 C0.33 1.32 0.66 2.64 1 4 C-1.97 3.505 -1.97 3.505 -5 3 C-2.25 0 -2.25 0 0 0 Z M3 -1 C3.33 -0.34 3.66 0.32 4 1 C3.67 1.66 3.34 2.32 3 3 C2.34 3 1.68 3 1 3 C1 2.01 1 1.02 1 0 C1.66 -0.33 2.32 -0.66 3 -1 Z " fill="#111020" transform="translate(187,171)"/>
<path d="M0 0 C0.5534764 2.07553648 1 3.84365964 1 6 C-0.65 6.66 -2.3 7.32 -4 8 C-3.40072174 4.64404172 -2.15377564 2.62198774 0 0 Z " fill="#0E1023" transform="translate(408,214)"/>
<path d="M0 0 C0.33 0.66 0.66 1.32 1 2 C2.98 1.67 4.96 1.34 7 1 C6.1875 2.9375 6.1875 2.9375 5 5 C4.01 5.33 3.02 5.66 2 6 C1.34 5.67 0.68 5.34 0 5 C0 3.35 0 1.7 0 0 Z " fill="#0D0E23" transform="translate(176,191)"/>
<path d="M0 0 C0.66 0.66 1.32 1.32 2 2 C-0.25 3.625 -0.25 3.625 -3 5 C-5.3125 4.1875 -5.3125 4.1875 -7 3 C-4.39685311 1.26456874 -3.01305957 0.38878188 0 0 Z " fill="#0D0E22" transform="translate(137,163)"/>
<path d="M0 0 C4.875 1.75 4.875 1.75 6 4 C5.34 4.66 4.68 5.32 4 6 C2.02 5.01 0.04 4.02 -2 3 C-1.34 2.67 -0.68 2.34 0 2 C0 1.34 0 0.68 0 0 Z " fill="#4C4B5A" transform="translate(145,146)"/>
<path d="M0 0 C0.33 0 0.66 0 1 0 C1.16852247 1.60397277 1.33474886 3.2081869 1.5 4.8125 C1.5928125 5.70582031 1.685625 6.59914062 1.78125 7.51953125 C2 10 2 10 2 13 C0.68 12.34 -0.64 11.68 -2 11 C-1.34 11 -0.68 11 0 11 C0 7.37 0 3.74 0 0 Z " fill="#454355" transform="translate(493,215)"/>
<path d="M0 0 C0.66 0 1.32 0 2 0 C2.33 0.99 2.66 1.98 3 3 C3.66 3 4.32 3 5 3 C5.66 2.34 6.32 1.68 7 1 C6.67 2.32 6.34 3.64 6 5 C4.35 5.33 2.7 5.66 1 6 C0.4465236 3.92446352 0 2.15634036 0 0 Z " fill="#555565" transform="translate(97,212)"/>
<path d="M0 0 C2.475 0.495 2.475 0.495 5 1 C4.67 1.99 4.34 2.98 4 4 C3.01 4.33 2.02 4.66 1 5 C0.67 3.35 0.34 1.7 0 0 Z " fill="#18192C" transform="translate(351,195)"/>
<path d="M0 0 C2.475 0.495 2.475 0.495 5 1 C5 1.66 5 2.32 5 3 C6.65 3.33 8.3 3.66 10 4 C7.50935112 4.68707555 5.62113708 5 3 5 C3 4.01 3 3.02 3 2 C2.01 1.67 1.02 1.34 0 1 C0 0.67 0 0.34 0 0 Z " fill="#55546C" transform="translate(146,134)"/>
<path d="M0 0 C0.66 0.99 1.32 1.98 2 3 C0.625 4.5 0.625 4.5 -1 6 C-3 6 -3 6 -6 5 C-4.02 3.35 -2.04 1.7 0 0 Z " fill="#313140" transform="translate(156,234)"/>
<path d="M0 0 C0.99 0 1.98 0 3 0 C2.67 1.65 2.34 3.3 2 5 C0.68 5.33 -0.64 5.66 -2 6 C-1.34 4.02 -0.68 2.04 0 0 Z " fill="#101123" transform="translate(227,215)"/>
<path d="M0 0 C0.33 1.32 0.66 2.64 1 4 C1.66 4 2.32 4 3 4 C2.67 5.98 2.34 7.96 2 10 C1.34 10 0.68 10 0 10 C0 6.7 0 3.4 0 0 Z " fill="#636370" transform="translate(396,202)"/>
<path d="M0 0 C1.125 1.625 1.125 1.625 2 4 C1.125 7.25 1.125 7.25 0 10 C-0.66 9.67 -1.32 9.34 -2 9 C-1.125 2.25 -1.125 2.25 0 0 Z " fill="#51505E" transform="translate(322,198)"/>
<path d="M0 0 C0.66 0 1.32 0 2 0 C2.33 1.65 2.66 3.3 3 5 C2.67 4.34 2.34 3.68 2 3 C1.34 3 0.68 3 0 3 C-0.66 4.65 -1.32 6.3 -2 8 C-3 5 -3 5 -1.6875 2.3125 C-1.130625 1.549375 -0.57375 0.78625 0 0 Z " fill="#6F6080" transform="translate(251,185)"/>
<path d="M0 0 C1.65 0.33 3.3 0.66 5 1 C4.01 2.485 4.01 2.485 3 4 C1.68 4 0.36 4 -1 4 C-0.67 2.68 -0.34 1.36 0 0 Z " fill="#2F2F3E" transform="translate(463,185)"/>
<path d="M0 0 C1.98 0 3.96 0 6 0 C6 0.66 6 1.32 6 2 C4 3.625 4 3.625 2 5 C1.34 4.67 0.68 4.34 0 4 C0 2.66666667 0 1.33333333 0 0 Z " fill="#0F0F22" transform="translate(132,130)"/>
<path d="M0 0 C0.33 0.66 0.66 1.32 1 2 C0.22265625 3.7265625 0.22265625 3.7265625 -0.9375 5.625 C-1.618125 6.73875 -2.29875 7.8525 -3 9 C-3.33 9 -3.66 9 -4 9 C-4 7.35 -4 5.7 -4 4 C-3.01 3.67 -2.02 3.34 -1 3 C-0.67 2.01 -0.34 1.02 0 0 Z " fill="#51515A" transform="translate(182,220)"/>
<path d="M0 0 C1.32 0 2.64 0 4 0 C4 1.32 4 2.64 4 4 C1.03 3.505 1.03 3.505 -2 3 C-1.34 2.67 -0.68 2.34 0 2 C0 1.34 0 0.68 0 0 Z " fill="#111124" transform="translate(82,198)"/>
<path d="" fill="#FFFFFF" transform="translate(0,0)"/>
<path d="" fill="#FFFFFF" transform="translate(0,0)"/>
<path d="" fill="#FFFFFF" transform="translate(0,0)"/>
<path d="" fill="#FFFFFF" transform="translate(0,0)"/>
<path d="" fill="#FFFFFF" transform="translate(0,0)"/>
<path d="" fill="#FFFFFF" transform="translate(0,0)"/>
<path d="" fill="#FFFFFF" transform="translate(0,0)"/>
<path d="" fill="#FFFFFF" transform="translate(0,0)"/>
<path d="" fill="#FFFFFF" transform="translate(0,0)"/>
<path d="" fill="#FFFFFF" transform="translate(0,0)"/>
<path d="" fill="#FFFFFF" transform="translate(0,0)"/>
<path d="" fill="#FFFFFF" transform="translate(0,0)"/>
<path d="" fill="#FFFFFF" transform="translate(0,0)"/>
<path d="" fill="#FFFFFF" transform="translate(0,0)"/>
<path d="" fill="#FFFFFF" transform="translate(0,0)"/>
<path d="" fill="#FFFFFF" transform="translate(0,0)"/>
<path d="" fill="#FFFFFF" transform="translate(0,0)"/>
<path d="" fill="#FFFFFF" transform="translate(0,0)"/>
<path d="" fill="#FFFFFF" transform="translate(0,0)"/>
<path d="" fill="#FFFFFF" transform="translate(0,0)"/>
<path d="" fill="#FFFFFF" transform="translate(0,0)"/>
<path d="" fill="#FFFFFF" transform="translate(0,0)"/>
<path d="" fill="#FFFFFF" transform="translate(0,0)"/>
<path d="" fill="#FFFFFF" transform="translate(0,0)"/>
<path d="" fill="#FFFFFF" transform="translate(0,0)"/>
<path d="" fill="#FFFFFF" transform="translate(0,0)"/>
<path d="" fill="#FFFFFF" transform="translate(0,0)"/>
<path d="" fill="#FFFFFF" transform="translate(0,0)"/>
<path d="" fill="#FFFFFF" transform="translate(0,0)"/>
<path d="" fill="#FFFFFF" transform="translate(0,0)"/>
<path d="" fill="#FFFFFF" transform="translate(0,0)"/>
<path d="" fill="#FFFFFF" transform="translate(0,0)"/>
<path d="" fill="#FFFFFF" transform="translate(0,0)"/>
<path d="" fill="#FFFFFF" transform="translate(0,0)"/>
<path d="" fill="#FFFFFF" transform="translate(0,0)"/>
<path d="" fill="#FFFFFF" transform="translate(0,0)"/>
<path d="" fill="#FFFFFF" transform="translate(0,0)"/>
<path d="" fill="#FFFFFF" transform="translate(0,0)"/>
<path d="" fill="#FFFFFF" transform="translate(0,0)"/>
<path d="" fill="#FFFFFF" transform="translate(0,0)"/>
<path d="" fill="#FFFFFF" transform="translate(0,0)"/>
<path d="" fill="#FFFFFF" transform="translate(0,0)"/>
<path d="" fill="#FFFFFF" transform="translate(0,0)"/>
<path d="" fill="#FFFFFF" transform="translate(0,0)"/>
<path d="" fill="#00FFFF" transform="translate(0,0)"/>
<path d="" fill="#FFFFFF" transform="translate(0,0)"/>
<path d="" fill="#FFFFFF" transform="translate(0,0)"/>
<path d="" fill="#FFFFFF" transform="translate(0,0)"/>
<path d="" fill="#FFFFFF" transform="translate(0,0)"/>
<path d="" fill="#FFFFFF" transform="translate(0,0)"/>
<path d="" fill="#FFFFFF" transform="translate(0,0)"/>
<path d="" fill="#FFFFFF" transform="translate(0,0)"/>
<path d="" fill="#FFFFFF" transform="translate(0,0)"/>
<path d="" fill="#FFFFFF" transform="translate(0,0)"/>
<path d="" fill="#FFFFFF" transform="translate(0,0)"/>
<path d="" fill="#FFFFFF" transform="translate(0,0)"/>
<path d="" fill="#FFFFFF" transform="translate(0,0)"/>
<path d="" fill="#FFFFFF" transform="translate(0,0)"/>
<path d="" fill="#FFFFFF" transform="translate(0,0)"/>
<path d="" fill="#FFFFFF" transform="translate(0,0)"/>
<path d="" fill="#FFFFFF" transform="translate(0,0)"/>
<path d="" fill="#FFFFFF" transform="translate(0,0)"/>
<path d="" fill="#FFFFFF" transform="translate(0,0)"/>
<path d="" fill="#FFFFFF" transform="translate(0,0)"/>
<path d="" fill="#FFFFFF" transform="translate(0,0)"/>
<path d="" fill="#FFFFFF" transform="translate(0,0)"/>
<path d="" fill="#FFFFFF" transform="translate(0,0)"/>
<path d="" fill="#FFFFFF" transform="translate(0,0)"/>
<path d="" fill="#FFFFFF" transform="translate(0,0)"/>
<path d="" fill="#FFFFFF" transform="translate(0,0)"/>
<path d="" fill="#FFFFFF" transform="translate(0,0)"/>
<path d="" fill="#FFFFFF" transform="translate(0,0)"/>
<path d="" fill="#FFFFFF" transform="translate(0,0)"/>
<path d="" fill="#FFFFFF" transform="translate(0,0)"/>
<path d="" fill="#FFFFFF" transform="translate(0,0)"/>
<path d="" fill="#FFFFFF" transform="translate(0,0)"/>
<path d="" fill="#FFFFFF" transform="translate(0,0)"/>
<path d="" fill="#FFFFFF" transform="translate(0,0)"/>
<path d="" fill="#FFFFFF" transform="translate(0,0)"/>
</svg>
